<?xml version="1.0" encoding="iso-8859-1"?>
<!-- Generator: Adobe Illustrator 18.0.0, SVG Export Plug-In . SVG Version: 6.00 Build 0)  -->
<!DOCTYPE svg PUBLIC "-//W3C//DTD SVG 1.1//EN" "http://www.w3.org/Graphics/SVG/1.1/DTD/svg11.dtd">
<svg version="1.1" id="Capa_1" xmlns="http://www.w3.org/2000/svg" xmlns:xlink="http://www.w3.org/1999/xlink" x="0px" y="0px"
	 viewBox="0 0 229.871 229.871" style="enable-background:new 0 0 229.871 229.871;" xml:space="preserve">
<path d="M133.691,202.479v-87.412h76.998v114.805H19.182V115.066H96.18v87.412H133.691z M222.535,104.125H7.336V58.058H35.09
	c-2.648-5.475-4.063-11.973-4.063-19.332C31.027,14.84,45.865,0,69.751,0c23.069,0,37.335,19.742,45.519,37.586
	c0.525-1.111,1.07-2.227,1.641-3.344C131.338,5.941,148.373,0,160.122,0c23.885,0,38.722,14.84,38.722,38.727
	c0,7.359-1.413,13.857-4.062,19.332h27.753V104.125z M101.934,57.711C97.07,42.982,86.705,19.742,69.751,19.742
	c-4.694,0-18.979,0-18.979,18.984s14.285,18.984,18.979,18.984H101.934z M179.102,38.727c0-18.984-14.285-18.984-18.98-18.984
	c-14.817,0-26.04,21.918-31.852,37.969h31.852C164.816,57.711,179.102,57.711,179.102,38.727z"/>
<g>
</g>
<g>
</g>
<g>
</g>
<g>
</g>
<g>
</g>
<g>
</g>
<g>
</g>
<g>
</g>
<g>
</g>
<g>
</g>
<g>
</g>
<g>
</g>
<g>
</g>
<g>
</g>
<g>
</g>
</svg>
